<svg width="24" height="25" viewBox="0 0 24 25" fill="none" xmlns="http://www.w3.org/2000/svg">
<g clip-path="url(#clip0_49_452)">
<path d="M12.414 5.75H21C21.2652 5.75 21.5196 5.85536 21.7071 6.04289C21.8946 6.23043 22 6.48478 22 6.75V20.75C22 21.0152 21.8946 21.2696 21.7071 21.4571C21.5196 21.6446 21.2652 21.75 21 21.75H3C2.73478 21.75 2.48043 21.6446 2.29289 21.4571C2.10536 21.2696 2 21.0152 2 20.75V4.75C2 4.48478 2.10536 4.23043 2.29289 4.04289C2.48043 3.85536 2.73478 3.75 3 3.75H10.414L12.414 5.75ZM4 5.75V19.75H20V7.75H11.586L9.586 5.75H4ZM11 12.75H13V17.75H11V12.75ZM11 9.75H13V11.75H11V9.75Z" fill="white"/>
</g>
<defs>
<clipPath id="clip0_49_452">
<rect width="24" height="24" fill="white" transform="translate(0 0.75)"/>
</clipPath>
</defs>
</svg>
