<svg width="22" height="19" viewBox="0 0 22 19" fill="none" xmlns="http://www.w3.org/2000/svg">
<g clip-path="url(#clip0_49_355)">
<path fill-rule="evenodd" clip-rule="evenodd" d="M22 2.17302C21.177 2.54059 20.3033 2.78197 19.4082 2.88835C20.353 2.319 21.0584 1.42531 21.3931 0.374188C20.5073 0.902065 19.5374 1.27422 18.5259 1.47429C17.9067 0.809623 17.1012 0.347173 16.2148 0.148114C15.3285 -0.0509447 14.4026 0.0225124 13.5586 0.358563C12.7146 0.694614 11.9923 1.27759 11.4854 2.03141C10.9784 2.78524 10.7106 3.67479 10.7178 4.58317C10.7173 4.93183 10.7568 5.27953 10.835 5.61931C9.03769 5.52768 7.27988 5.05758 5.67676 4.23991C4.07364 3.42224 2.6616 2.2753 1.53223 0.874188C0.953938 1.87456 0.776093 3.05671 1.03516 4.18278C1.29422 5.30886 1.97092 6.29497 2.92822 6.94206C2.21057 6.91804 1.50879 6.72208 0.882812 6.37028V6.42839C0.879988 7.47404 1.23886 8.48818 1.89795 9.29997C2.55704 10.1118 3.47607 10.6709 4.5 10.883C4.11397 10.9892 3.7153 11.0428 3.31494 11.0422C3.03004 11.0417 2.74568 11.0145 2.46582 10.9611C2.75125 11.8616 3.3116 12.65 4.06787 13.216C4.82415 13.782 5.7387 14.0974 6.68311 14.1174C5.08789 15.3798 3.11245 16.0651 1.07812 16.0622C0.717874 16.0631 0.357765 16.0424 0 16.0002C2.06042 17.3346 4.46316 18.0438 6.91797 18.0422C8.61333 18.0478 10.2931 17.7164 11.8594 17.0675C13.4257 16.4187 14.8472 15.4652 16.042 14.2624C17.2367 13.0595 18.1806 11.6314 18.8188 10.0607C19.4571 8.49006 19.7769 6.80824 19.7598 5.11296C19.7598 4.91296 19.7601 4.72007 19.7471 4.52507C20.6316 3.88083 21.3944 3.08438 22 2.17302Z" fill="white"/>
</g>
<defs>
<clipPath id="clip0_49_355">
<rect width="22" height="18" fill="white" transform="translate(0 0.0419922)"/>
</clipPath>
</defs>
</svg>
