<svg width="20" height="25" viewBox="0 0 20 25" fill="none" xmlns="http://www.w3.org/2000/svg">
<g clip-path="url(#clip0_49_359)">
<path fill-rule="evenodd" clip-rule="evenodd" d="M3.79004 0.0419922H5.18506L6.08496 3.63477H6.17188L7.02881 0.0419922H8.43896L6.8252 5.2959V9.02295H5.43994V5.46582L3.79004 0.0419922ZM8.37793 3.91309C8.36777 3.68489 8.40733 3.45709 8.49365 3.24561C8.57997 3.03412 8.71099 2.8439 8.87793 2.68799C9.24787 2.36933 9.72623 2.20531 10.2139 2.22998C10.4444 2.22132 10.6744 2.25974 10.8896 2.34277C11.1049 2.42581 11.3008 2.55164 11.4658 2.71289C11.6283 2.87418 11.7557 3.06739 11.8398 3.28027C11.924 3.49316 11.9633 3.72143 11.9551 3.9502V7.37305C11.9687 7.6163 11.9335 7.85991 11.8516 8.08936C11.7696 8.3188 11.6426 8.52938 11.478 8.70898C11.3029 8.8752 11.0958 9.00368 10.8691 9.08691C10.6425 9.17014 10.4012 9.20624 10.1602 9.19287C9.92063 9.20435 9.68134 9.16616 9.45752 9.08008C9.2337 8.99399 9.02996 8.8619 8.85986 8.69287C8.69412 8.51232 8.56601 8.30089 8.48291 8.07031C8.39981 7.83974 8.36351 7.59487 8.37598 7.3501V3.91309H8.37793ZM9.64404 7.47119C9.6333 7.62427 9.68137 7.77549 9.77881 7.89404C9.82657 7.94452 9.8851 7.98371 9.94971 8.00928C10.0143 8.03485 10.0835 8.04612 10.1528 8.04199C10.2265 8.04572 10.3003 8.03416 10.3691 8.00781C10.438 7.98147 10.5009 7.94109 10.5532 7.88916C10.6041 7.83282 10.6432 7.76689 10.6685 7.69531C10.6937 7.62373 10.7045 7.54794 10.7002 7.47217V3.86279C10.7022 3.79695 10.6897 3.73187 10.6636 3.67139C10.6375 3.6109 10.5981 3.55687 10.5488 3.51318C10.4389 3.42062 10.2984 3.37221 10.1548 3.37793C10.0191 3.37244 9.88707 3.42125 9.78711 3.51318C9.74035 3.55835 9.70349 3.61255 9.6792 3.67285C9.65491 3.73315 9.64361 3.79782 9.646 3.86279V7.47119H9.64404ZM16.5151 2.3999V9.02393H15.2822V8.29199C15.0841 8.53793 14.8432 8.74675 14.5718 8.9082C14.3569 9.03963 14.1116 9.11262 13.8599 9.12012C13.7361 9.12742 13.6124 9.10364 13.5 9.05127C13.3876 8.9989 13.2899 8.9193 13.2158 8.81982C13.0547 8.55657 12.9794 8.24986 13 7.94189V2.3999H14.231V7.48096C14.2216 7.59909 14.2493 7.71711 14.3101 7.81885C14.3401 7.85538 14.3783 7.88437 14.4219 7.90283C14.4654 7.92129 14.5129 7.92862 14.5601 7.9248C14.685 7.91195 14.8034 7.86405 14.9019 7.78613C15.0464 7.68777 15.1753 7.56773 15.2832 7.43018V2.3999H16.5151ZM16.5669 16.1948C16.5099 16.1884 16.4523 16.1962 16.3989 16.2173C16.3456 16.2384 16.2984 16.2722 16.2612 16.3159C16.1821 16.4721 16.1489 16.6475 16.166 16.8218V17.3418H16.9658V16.8198C16.9832 16.644 16.9488 16.4672 16.8662 16.311C16.8316 16.2684 16.7867 16.2351 16.7358 16.2144C16.685 16.1936 16.6298 16.1858 16.5752 16.1919L16.5669 16.1948ZM11.9092 16.2212C11.8449 16.2553 11.7864 16.2997 11.7368 16.353V20.3081C11.7981 20.3733 11.8697 20.4284 11.9482 20.4712C12.0197 20.5078 12.0989 20.5264 12.1792 20.5259C12.3342 20.5259 12.379 20.4639 12.396 20.4429C12.4614 20.3334 12.4896 20.2059 12.4761 20.0791V16.709C12.4878 16.5619 12.4527 16.415 12.376 16.2891C12.3201 16.223 12.2419 16.1798 12.1562 16.1675C12.0706 16.1551 11.9834 16.1745 11.9111 16.2222L11.9092 16.2212Z" fill="white"/>
<path fill-rule="evenodd" clip-rule="evenodd" d="M19.8651 13.564C19.863 13.1871 19.7866 12.8142 19.6405 12.4668C19.4943 12.1194 19.281 11.8041 19.013 11.5391C18.745 11.2741 18.4275 11.0647 18.0785 10.9224C17.7294 10.7801 17.3557 10.7079 16.9788 10.71C14.7035 10.6147 12.3769 10.5702 9.99887 10.5762C7.62387 10.5762 5.29889 10.614 3.01889 10.71C2.25796 10.7063 1.52664 11.0049 0.985684 11.5401C0.444726 12.0752 0.13813 12.8031 0.133633 13.564C0.0396332 14.8107 -0.00482249 16.0591 -0.000155824 17.3091C-0.000155824 18.5561 0.0386098 19.8092 0.13461 21.0542C0.138578 21.8153 0.444885 22.5436 0.985684 23.0791C1.52648 23.6147 2.25779 23.9137 3.01889 23.9102C5.29489 24.0042 7.62184 24.048 9.99984 24.042C12.3772 24.0474 14.7038 24.0038 16.9798 23.9112C17.3568 23.9132 17.7304 23.8407 18.0794 23.6983C18.4285 23.5558 18.7465 23.3458 19.0145 23.0806C19.2825 22.8154 19.4953 22.5 19.6414 22.1524C19.7875 21.8048 19.8641 21.4322 19.8661 21.0552C19.9614 19.8066 20.0062 18.5581 20.0008 17.3101C20.0062 16.0601 19.9614 14.8117 19.8661 13.565L19.8651 13.564ZM4.46469 21.6041C4.46469 21.6404 4.45034 21.675 4.42465 21.7007C4.39896 21.7264 4.3643 21.7413 4.32797 21.7413H2.96371C2.94564 21.7414 2.92771 21.7378 2.91098 21.731C2.89424 21.7242 2.87937 21.714 2.86654 21.7012C2.85372 21.6885 2.84322 21.6735 2.83627 21.6568C2.82932 21.6401 2.82602 21.6221 2.82602 21.6041V14.1783H1.5516C1.53361 14.1784 1.51603 14.1748 1.49936 14.168C1.48268 14.1613 1.46725 14.1513 1.45443 14.1387C1.44162 14.1261 1.43165 14.1109 1.42465 14.0943C1.41764 14.0777 1.41404 14.06 1.41391 14.042V12.7588C1.41377 12.7407 1.41727 12.7229 1.42416 12.7061C1.43105 12.6893 1.4411 12.674 1.45395 12.6612C1.46679 12.6483 1.48206 12.6383 1.49887 12.6314C1.51567 12.6245 1.53344 12.621 1.5516 12.6211H5.74398C5.76206 12.6211 5.78003 12.6244 5.79672 12.6314C5.81341 12.6383 5.82842 12.6488 5.84115 12.6617C5.85389 12.6745 5.86411 12.6894 5.87094 12.7061C5.87776 12.7228 5.88084 12.7408 5.8807 12.7588V14.042C5.8807 14.0784 5.86636 14.113 5.84066 14.1387C5.81497 14.1644 5.78032 14.1792 5.74398 14.1792H4.46762V21.6041H4.46469ZM9.32699 21.6041C9.32699 21.6404 9.31265 21.675 9.28695 21.7007C9.26126 21.7264 9.22612 21.7413 9.18979 21.7413H7.97885C7.96077 21.7414 7.94285 21.7378 7.92611 21.731C7.90938 21.7242 7.89402 21.714 7.88119 21.7012C7.86836 21.6885 7.85835 21.6735 7.85141 21.6568C7.84446 21.6401 7.84066 21.6221 7.84066 21.6041V21.233C7.69359 21.3793 7.52852 21.506 7.34897 21.6099C7.11623 21.7532 6.84929 21.8313 6.57602 21.836C6.43299 21.8441 6.28983 21.8169 6.16 21.7564C6.03017 21.6958 5.91757 21.6036 5.83188 21.4888C5.65423 21.2029 5.56979 20.8692 5.59066 20.5332V15.0791C5.59053 15.0611 5.59409 15.0432 5.60092 15.0264C5.60774 15.0097 5.61797 14.9943 5.6307 14.9815C5.64344 14.9687 5.65845 14.9587 5.67514 14.9517C5.69182 14.9448 5.7098 14.941 5.72787 14.941H6.94174C6.9599 14.9408 6.97816 14.9443 6.99496 14.9512C7.01176 14.9581 7.02704 14.9682 7.03988 14.981C7.05272 14.9938 7.06278 15.0091 7.06967 15.0259C7.07656 15.0427 7.08006 15.061 7.07992 15.0791V20.0791C7.07064 20.1674 7.08752 20.2564 7.12875 20.335C7.13675 20.346 7.16198 20.3809 7.26498 20.3809C7.36025 20.3684 7.44983 20.3295 7.52377 20.2681C7.64229 20.1884 7.74863 20.092 7.83969 19.982V15.0821C7.83969 15.064 7.84348 15.046 7.85043 15.0293C7.85738 15.0127 7.86739 14.9976 7.88022 14.9849C7.89304 14.9722 7.9084 14.962 7.92514 14.9551C7.94187 14.9483 7.9598 14.9447 7.97787 14.9449H9.19076C9.2271 14.9449 9.26224 14.9597 9.28793 14.9854C9.31362 15.0111 9.32797 15.0457 9.32797 15.0821V21.607L9.32699 21.6041ZM13.9998 20.254C14.0255 20.6618 13.9144 21.0664 13.6839 21.4039C13.5734 21.5436 13.4312 21.6551 13.2689 21.7286C13.1066 21.802 12.9287 21.8355 12.7508 21.8262C12.5083 21.8301 12.2682 21.7761 12.0506 21.669C11.9355 21.6093 11.8285 21.5357 11.7318 21.4493V21.606C11.7319 21.6242 11.7284 21.6424 11.7215 21.6592C11.7146 21.676 11.7046 21.6913 11.6917 21.7041C11.6789 21.717 11.6636 21.727 11.6468 21.7339C11.63 21.7408 11.6122 21.7443 11.5941 21.7442H10.3719C10.3538 21.7443 10.3355 21.7408 10.3187 21.7339C10.3019 21.727 10.2866 21.717 10.2738 21.7041C10.2609 21.6913 10.2509 21.676 10.244 21.6592C10.2371 21.6424 10.2336 21.6242 10.2337 21.606V12.7613C10.2337 12.7432 10.2375 12.7252 10.2445 12.7085C10.2514 12.6919 10.2614 12.6764 10.2743 12.6636C10.2871 12.6509 10.3024 12.6411 10.3192 12.6343C10.3359 12.6275 10.3538 12.6239 10.3719 12.6241H11.5999C11.618 12.6239 11.6359 12.6275 11.6527 12.6343C11.6694 12.6411 11.6848 12.6509 11.6976 12.6636C11.7104 12.6764 11.7204 12.6919 11.7274 12.7085C11.7343 12.7252 11.7376 12.7432 11.7376 12.7613V15.2613C11.8345 15.1733 11.9408 15.0955 12.054 15.0298C12.245 14.9192 12.4613 14.8598 12.682 14.857C12.8736 14.8477 13.0643 14.8867 13.2371 14.9698C13.41 15.0529 13.5593 15.1776 13.6717 15.3331C13.914 15.7216 14.0291 16.1758 14.0008 16.6329V20.252L13.9998 20.254ZM18.4847 18.4971C18.4847 18.5335 18.4704 18.5681 18.4447 18.5938C18.419 18.6195 18.3843 18.6338 18.348 18.6338H16.1649V19.7271C16.1454 19.9457 16.1798 20.1659 16.265 20.3682C16.296 20.4161 16.34 20.4539 16.3919 20.4776C16.4438 20.5013 16.5014 20.5098 16.5579 20.502C16.6151 20.5091 16.6731 20.503 16.7274 20.4839C16.7817 20.4649 16.8308 20.4334 16.8709 20.3921C16.9567 20.1816 16.9881 19.953 16.9627 19.7271V19.272C16.9626 19.2539 16.9661 19.2361 16.973 19.2193C16.9799 19.2025 16.9899 19.1872 17.0028 19.1744C17.0156 19.1615 17.0309 19.151 17.0477 19.1441C17.0645 19.1372 17.0828 19.1337 17.1009 19.1338H18.348C18.3661 19.1337 18.3839 19.1372 18.4007 19.1441C18.4175 19.151 18.4328 19.1615 18.4456 19.1744C18.4585 19.1872 18.4685 19.2025 18.4754 19.2193C18.4823 19.2361 18.4858 19.2539 18.4857 19.272V19.7632C18.5245 20.3391 18.3492 20.9086 17.993 21.3628C17.8031 21.5551 17.5735 21.7041 17.3206 21.7994C17.0678 21.8946 16.7972 21.9343 16.5277 21.9151C16.2675 21.9269 16.0082 21.8804 15.7684 21.7789C15.5286 21.6773 15.3145 21.5232 15.1419 21.3282C14.789 20.8831 14.6112 20.324 14.6419 19.7569V16.8321C14.6321 16.5613 14.6759 16.291 14.7708 16.0372C14.8657 15.7833 15.0096 15.551 15.1947 15.3531C15.3794 15.1621 15.6022 15.0122 15.8485 14.9126C16.0948 14.8131 16.3593 14.766 16.6248 14.7749C16.8793 14.7609 17.1337 14.8021 17.3709 14.8951C17.6082 14.9881 17.8227 15.1308 17.9998 15.314C18.3449 15.7411 18.5172 16.2821 18.4828 16.8301V18.4961L18.4847 18.4971Z" fill="white"/>
</g>
<defs>
<clipPath id="clip0_49_359">
<rect width="20" height="24" fill="white" transform="translate(0 0.0419922)"/>
</clipPath>
</defs>
</svg>
